<svg version="1.1" id="Layer_1" xmlns="http://www.w3.org/2000/svg" xmlns:xlink="http://www.w3.org/1999/xlink" x="0px" y="0px"
	 width="100%" viewBox="0 0 2816 1504" enable-background="new 0 0 2816 1504" xml:space="preserve">
<path fill="#FDFEFD" opacity="1.000000" stroke="none" 
	d="
M1662.000000,1506.000000 
	C1108.063843,1506.000000 555.127747,1506.000000 2.095819,1506.000000 
	C2.095819,1004.788452 2.095819,503.576935 2.095819,2.182685 
	C940.436401,2.182685 1878.872925,2.182685 2817.654785,2.182685 
	C2817.654785,503.333160 2817.654785,1004.666565 2817.654785,1506.000000 
	C2432.909668,1506.000000 2047.954834,1506.000000 1662.000000,1506.000000 
M274.632477,772.999207 
	C274.632477,856.229370 274.632477,939.459534 274.632477,1023.691406 
	C278.871368,1023.691406 282.114960,1023.691711 285.358551,1023.691345 
	C370.685455,1023.680603 456.012726,1023.516541 541.338989,1023.745422 
	C569.723572,1023.821533 597.962280,1022.782166 625.968750,1017.896423 
	C648.988342,1013.880676 671.653748,1008.511353 692.747742,998.135803 
	C729.796448,979.912476 755.549255,951.696289 768.075562,911.933533 
	C776.127502,886.373779 777.870850,860.369141 774.052979,833.925354 
	C767.385376,787.743835 745.052795,751.576172 705.127563,726.861145 
	C697.876221,722.372314 690.052368,718.808167 682.066772,714.592224 
	C683.095581,713.618347 683.880432,712.516113 684.947754,711.917603 
	C714.019226,695.614563 732.744446,671.007568 742.350464,639.431763 
	C751.179382,610.410217 750.688049,580.942566 744.726501,551.472290 
	C741.113770,533.613098 733.793335,517.290833 722.945496,502.604614 
	C702.984985,475.581177 675.512451,459.178009 644.577942,448.073975 
	C613.176208,436.802307 580.388672,433.085541 547.269897,433.001801 
	C459.944702,432.780975 372.618286,433.045746 285.292389,433.144501 
	C282.041565,433.148193 278.791077,433.437866 274.626312,433.638275 
	C274.626312,546.519836 274.626312,658.759460 274.632477,772.999207 
M1263.623291,897.571777 
	C1264.308594,902.651428 1264.993896,907.731079 1265.708130,913.025818 
	C1175.294189,913.025818 1086.138672,913.025818 995.920410,913.025818 
	C997.120728,911.258911 997.658264,910.147949 998.476562,909.311646 
	C1008.266479,899.306213 1018.093994,889.337708 1027.919434,879.367126 
	C1066.278687,840.441406 1104.820923,801.693604 1142.929443,762.523926 
	C1163.261841,741.625427 1180.074951,717.909485 1192.719238,691.662903 
	C1213.053833,649.453247 1217.547363,604.841431 1208.884644,559.088196 
	C1203.261230,529.388855 1190.513184,502.916931 1168.925049,481.110443 
	C1141.080322,452.984070 1107.084717,436.279785 1068.884277,428.115051 
	C1038.764771,421.677460 1008.224182,420.107544 977.464172,423.810059 
	C923.663879,430.285919 875.780273,449.716125 836.393066,487.735443 
	C820.001587,503.557800 807.743958,522.415771 797.321106,543.059143 
	C830.151428,563.303711 862.288269,583.120667 894.814636,603.177795 
	C896.531738,600.245483 897.526001,598.560669 898.507874,596.868774 
	C907.110596,582.045776 917.298584,568.533447 931.289185,558.334595 
	C960.272461,537.206421 992.752808,532.181335 1027.279907,538.692322 
	C1045.503418,542.128906 1060.873657,550.812622 1071.765991,566.605103 
	C1085.190674,586.069092 1086.632568,607.602844 1082.944092,629.843384 
	C1078.590454,656.094116 1064.791382,677.545837 1046.601562,696.284790 
	C1009.471436,734.535706 972.184509,772.635254 934.824402,810.661743 
	C897.696411,848.451965 860.422302,886.098816 823.133057,923.730042 
	C820.144775,926.745728 818.647339,929.684937 818.714417,934.182800 
	C819.127014,961.843811 819.128113,989.510864 819.346436,1017.175232 
	C819.363647,1019.344543 819.992981,1021.509033 820.336121,1023.664978 
	C895.036133,1023.664978 969.032043,1023.665039 1043.027954,1023.665039 
	C1117.303101,1023.665039 1191.578125,1023.664978 1266.607178,1023.664978 
	C1262.827393,1045.675781 1259.208984,1066.746704 1255.590576,1087.817749 
	C1256.188843,1088.216064 1256.787109,1088.614502 1257.385376,1089.012939 
	C1315.451172,1048.925537 1373.524170,1008.848572 1431.949097,967.842590 
	C1372.687378,927.105042 1314.715942,887.254456 1256.744385,847.403870 
	C1256.226440,847.849487 1255.708618,848.295105 1255.190674,848.740784 
	C1257.891479,864.448975 1260.592407,880.157227 1263.623291,897.571777 
M2062.106201,628.956421 
	C2048.215332,618.448547 2033.074341,610.248840 2016.805176,604.027100 
	C1988.597900,593.239868 1959.371948,589.947388 1929.443115,592.077759 
	C1883.393066,595.355591 1842.722412,612.270569 1808.046387,642.482910 
	C1769.696655,675.895752 1747.161377,718.564453 1739.099731,768.617554 
	C1732.772095,807.904724 1733.637329,847.102600 1746.354370,885.162598 
	C1763.497192,936.468567 1795.333984,976.624329 1842.510620,1003.238892 
	C1893.766113,1032.154419 1948.635010,1038.340698 2005.753418,1024.472778 
	C2052.608398,1013.096863 2091.583008,989.150452 2121.674561,951.218262 
	C2124.481934,947.679443 2127.033203,943.937683 2129.810059,940.144226 
	C2116.224121,928.398926 2103.498291,917.397278 2090.472168,906.135864 
	C2086.500488,910.864075 2083.203857,915.010010 2079.678467,918.951477 
	C2037.678467,965.910461 1985.269775,984.620789 1923.364258,974.310791 
	C1874.827881,966.227356 1838.502075,939.432861 1813.796021,896.914062 
	C1802.233765,877.015747 1796.939941,855.221008 1793.720459,831.423767 
	C1912.885742,831.423767 2031.285034,831.423767 2150.041260,831.423767 
	C2150.308105,828.362976 2150.523193,826.419434 2150.640381,824.469971 
	C2152.092773,800.347168 2149.615967,776.603943 2143.968750,753.130310 
	C2131.761963,702.388245 2106.215088,660.417053 2062.106201,628.956421 
M1315.950806,771.427979 
	C1325.117065,727.595093 1348.004150,693.040344 1385.532715,668.332031 
	C1409.160278,652.776062 1435.661377,647.290527 1463.338013,646.428650 
	C1482.501709,645.831970 1501.283813,648.995117 1519.057251,656.164246 
	C1551.855713,669.393860 1576.531006,692.442444 1593.082153,723.228760 
	C1621.095093,775.335327 1624.022583,829.863892 1600.739624,884.038086 
	C1578.849121,934.972534 1540.177368,966.520874 1483.754150,973.839600 
	C1480.030884,974.322510 1476.243042,976.386780 1473.055298,978.554077 
	C1459.842285,987.537720 1446.837402,996.828064 1433.777954,1006.036865 
	C1425.203369,1012.083069 1416.666504,1018.182495 1406.449585,1025.439331 
	C1494.336670,1043.151123 1564.239014,1018.286316 1618.530762,945.972473 
	C1618.530762,973.429688 1618.530762,998.234680 1618.530762,1023.428040 
	C1636.831299,1023.428040 1654.365723,1023.428040 1671.834839,1023.428040 
	C1674.062378,1013.070496 1673.608765,440.416718 1671.306152,432.512787 
	C1662.452637,432.512787 1653.468018,432.496948 1644.483398,432.517181 
	C1635.314087,432.537842 1626.144653,432.593964 1615.881348,432.639404 
	C1615.881348,512.174683 1615.881348,590.232300 1615.881348,670.524170 
	C1613.330933,667.408142 1612.294312,666.250427 1611.376831,665.004944 
	C1582.314453,625.554688 1543.506348,600.882446 1495.253662,594.014343 
	C1429.288940,584.625305 1370.097534,601.468750 1321.266602,647.971008 
	C1276.226318,690.863464 1255.698486,744.664185 1254.612061,806.708679 
	C1274.564941,820.681885 1294.535645,834.456970 1315.914917,848.486450 
	C1309.205200,805.004150 1312.938599,788.165222 1315.950806,771.427979 
M2265.434570,715.504639 
	C2250.888428,677.368042 2236.342041,639.231506 2222.045898,601.750549 
	C2201.348877,601.750549 2182.094482,601.750549 2161.803955,601.750549 
	C2216.295654,742.933777 2270.467285,883.288269 2324.490723,1023.258423 
	C2345.621582,1023.258423 2365.823730,1023.258423 2386.184814,1023.258423 
	C2440.258057,882.761292 2494.168701,742.687195 2548.329834,601.961548 
	C2527.777832,601.961548 2508.616211,601.961548 2489.656006,601.961548 
	C2445.051270,718.205322 2400.674805,833.854126 2355.668457,951.144775 
	C2325.289062,871.873718 2295.607910,794.423706 2265.434570,715.504639 
M1435.312988,704.069214 
	C1408.604858,712.249939 1388.302368,728.803894 1374.289673,752.620544 
	C1345.815186,801.017273 1354.740112,862.402222 1400.308350,899.287170 
	C1437.626343,929.493958 1492.448120,928.547241 1529.280640,897.980530 
	C1575.492432,859.629944 1579.505005,789.659302 1549.528931,745.868591 
	C1524.680054,709.567932 1481.145752,691.046326 1435.312988,704.069214 
z"/>
<path fill="#030303" opacity="1.000000" stroke="none" 
	d="
M274.629395,771.999146 
	C274.626312,658.759460 274.626312,546.519836 274.626312,433.638275 
	C278.791077,433.437866 282.041565,433.148193 285.292389,433.144501 
	C372.618286,433.045746 459.944702,432.780975 547.269897,433.001801 
	C580.388672,433.085541 613.176208,436.802307 644.577942,448.073975 
	C675.512451,459.178009 702.984985,475.581177 722.945496,502.604614 
	C733.793335,517.290833 741.113770,533.613098 744.726501,551.472290 
	C750.688049,580.942566 751.179382,610.410217 742.350464,639.431763 
	C732.744446,671.007568 714.019226,695.614563 684.947754,711.917603 
	C683.880432,712.516113 683.095581,713.618347 682.066772,714.592224 
	C690.052368,718.808167 697.876221,722.372314 705.127563,726.861145 
	C745.052795,751.576172 767.385376,787.743835 774.052979,833.925354 
	C777.870850,860.369141 776.127502,886.373779 768.075562,911.933533 
	C755.549255,951.696289 729.796448,979.912476 692.747742,998.135803 
	C671.653748,1008.511353 648.988342,1013.880676 625.968750,1017.896423 
	C597.962280,1022.782166 569.723572,1023.821533 541.338989,1023.745422 
	C456.012726,1023.516541 370.685455,1023.680603 285.358551,1023.691345 
	C282.114960,1023.691711 278.871368,1023.691406 274.632477,1023.691406 
	C274.632477,939.459534 274.632477,856.229370 274.629395,771.999146 
M544.992004,914.627258 
	C563.739868,915.069214 582.209717,913.563538 600.268616,907.942688 
	C634.043091,897.430359 648.826843,871.565125 645.031860,838.389771 
	C641.403320,806.670044 625.686035,788.068604 594.669983,780.190186 
	C583.489929,777.350281 571.702393,775.742004 560.173279,775.637207 
	C510.180481,775.182678 460.180695,775.491333 410.183472,775.522339 
	C408.271973,775.523560 406.360443,775.522522 403.852539,775.522522 
	C403.852539,822.152039 403.852539,867.939514 403.852539,914.623108 
	C450.525604,914.623108 496.760376,914.623108 544.992004,914.627258 
M569.078552,666.446167 
	C573.840393,664.995972 578.764648,663.933594 583.333069,662.021179 
	C595.894775,656.762634 606.644348,649.201477 612.963379,636.600830 
	C622.657898,617.269104 622.742432,597.384033 615.028259,577.632690 
	C611.120605,567.627563 604.224304,559.493103 594.811523,553.561707 
	C579.347778,543.817505 562.384338,540.066284 544.429565,540.038391 
	C499.810883,539.969055 455.191956,540.032288 410.573151,540.084534 
	C408.340088,540.087158 406.107452,540.487854 403.750854,540.715149 
	C403.750854,584.048340 403.750854,626.858948 403.750854,670.300903 
	C405.781464,670.404968 407.363647,670.557373 408.945740,670.556763 
	C451.233673,670.540405 493.524170,670.750000 535.807800,670.308838 
	C546.362793,670.198730 556.895874,667.982056 569.078552,666.446167 
z"/>
<path fill="#020302" opacity="1.000000" stroke="none" 
	d="
M1263.458252,896.718628 
	C1260.592407,880.157227 1257.891479,864.448975 1255.190674,848.740784 
	C1255.708618,848.295105 1256.226440,847.849487 1256.744385,847.403870 
	C1314.715942,887.254456 1372.687378,927.105042 1431.949097,967.842590 
	C1373.524170,1008.848572 1315.451172,1048.925537 1257.385376,1089.012939 
	C1256.787109,1088.614502 1256.188843,1088.216064 1255.590576,1087.817749 
	C1259.208984,1066.746704 1262.827393,1045.675781 1266.607178,1023.664978 
	C1191.578125,1023.664978 1117.303101,1023.665039 1043.027954,1023.665039 
	C969.032043,1023.665039 895.036133,1023.664978 820.336121,1023.664978 
	C819.992981,1021.509033 819.363647,1019.344543 819.346436,1017.175232 
	C819.128113,989.510864 819.127014,961.843811 818.714417,934.182800 
	C818.647339,929.684937 820.144775,926.745728 823.133057,923.730042 
	C860.422302,886.098816 897.696411,848.451965 934.824402,810.661743 
	C972.184509,772.635254 1009.471436,734.535706 1046.601562,696.284790 
	C1064.791382,677.545837 1078.590454,656.094116 1082.944092,629.843384 
	C1086.632568,607.602844 1085.190674,586.069092 1071.765991,566.605103 
	C1060.873657,550.812622 1045.503418,542.128906 1027.279907,538.692322 
	C992.752808,532.181335 960.272461,537.206421 931.289185,558.334595 
	C917.298584,568.533447 907.110596,582.045776 898.507874,596.868774 
	C897.526001,598.560669 896.531738,600.245483 894.814636,603.177795 
	C862.288269,583.120667 830.151428,563.303711 797.321106,543.059143 
	C807.743958,522.415771 820.001587,503.557800 836.393066,487.735443 
	C875.780273,449.716125 923.663879,430.285919 977.464172,423.810059 
	C1008.224182,420.107544 1038.764771,421.677460 1068.884277,428.115051 
	C1107.084717,436.279785 1141.080322,452.984070 1168.925049,481.110443 
	C1190.513184,502.916931 1203.261230,529.388855 1208.884644,559.088196 
	C1217.547363,604.841431 1213.053833,649.453247 1192.719238,691.662903 
	C1180.074951,717.909485 1163.261841,741.625427 1142.929443,762.523926 
	C1104.820923,801.693604 1066.278687,840.441406 1027.919434,879.367126 
	C1018.093994,889.337708 1008.266479,899.306213 998.476562,909.311646 
	C997.658264,910.147949 997.120728,911.258911 995.920410,913.025818 
	C1086.138672,913.025818 1175.294189,913.025818 1265.708130,913.025818 
	C1264.993896,907.731079 1264.308594,902.651428 1263.458252,896.718628 
z"/>
<path fill="#050505" opacity="1.000000" stroke="none" 
	d="
M2062.202393,629.334290 
	C2106.215088,660.417053 2131.761963,702.388245 2143.968750,753.130310 
	C2149.615967,776.603943 2152.092773,800.347168 2150.640381,824.469971 
	C2150.523193,826.419434 2150.308105,828.362976 2150.041260,831.423767 
	C2031.285034,831.423767 1912.885742,831.423767 1793.720459,831.423767 
	C1796.939941,855.221008 1802.233765,877.015747 1813.796021,896.914062 
	C1838.502075,939.432861 1874.827881,966.227356 1923.364258,974.310791 
	C1985.269775,984.620789 2037.678467,965.910461 2079.678467,918.951477 
	C2083.203857,915.010010 2086.500488,910.864075 2090.472168,906.135864 
	C2103.498291,917.397278 2116.224121,928.398926 2129.810059,940.144226 
	C2127.033203,943.937683 2124.481934,947.679443 2121.674561,951.218262 
	C2091.583008,989.150452 2052.608398,1013.096863 2005.753418,1024.472778 
	C1948.635010,1038.340698 1893.766113,1032.154419 1842.510620,1003.238892 
	C1795.333984,976.624329 1763.497192,936.468567 1746.354370,885.162598 
	C1733.637329,847.102600 1732.772095,807.904724 1739.099731,768.617554 
	C1747.161377,718.564453 1769.696655,675.895752 1808.046387,642.482910 
	C1842.722412,612.270569 1883.393066,595.355591 1929.443115,592.077759 
	C1959.371948,589.947388 1988.597900,593.239868 2016.805176,604.027100 
	C2033.074341,610.248840 2048.215332,618.448547 2062.202393,629.334290 
z"/>
</svg>
